<?xml version="1.0" encoding="utf-8"?>
<!-- Generator: Adobe Illustrator 24.3.0, SVG Export Plug-In . SVG Version: 6.00 Build 0)  -->
<svg version="1.1" id="Слой_3" xmlns="http://www.w3.org/2000/svg" xmlns:xlink="http://www.w3.org/1999/xlink" x="0px" y="0px"
	 viewBox="0 0 786.3 231" style="enable-background:new 0 0 786.3 231;" xml:space="preserve">
<style type="text/css">
	.st0{fill:url(#SVGID_1_);}
	.st1{fill:url(#SVGID_2_);}
	.st2{fill:url(#SVGID_3_);}
	.st3{fill:url(#SVGID_4_);}
	.st4{fill:url(#SVGID_5_);}
	.st5{fill:url(#SVGID_6_);}
	.st6{fill:url(#SVGID_7_);}
	.st7{fill:url(#SVGID_8_);}
	.st8{fill:url(#SVGID_9_);}
	.st9{fill:url(#SVGID_10_);}
	.st10{fill:url(#SVGID_11_);}
	.st11{fill:url(#SVGID_12_);}
	.st12{fill:url(#SVGID_13_);}
	.st13{fill:url(#SVGID_14_);}
	.st14{fill:url(#SVGID_15_);}
	.st15{fill:url(#SVGID_16_);}
	.st16{fill:url(#SVGID_17_);}
	.st17{fill:url(#SVGID_18_);}
	.st18{fill:url(#SVGID_19_);}
	.st19{fill:url(#SVGID_20_);}
	.st20{fill:url(#SVGID_21_);}
	.st21{fill:#FFFFFF;}
</style>
<g>
	<g>
		<linearGradient id="SVGID_1_" gradientUnits="userSpaceOnUse" x1="318.9485" y1="85.6906" x2="774.1151" y2="85.6906">
			<stop  offset="0" style="stop-color:#17FD9A"/>
			<stop  offset="1" style="stop-color:#1CACFF"/>
		</linearGradient>
		<path class="st0" d="M338.4,109.8h-17.9v-1c3.2,0,5.3-3.1,5.3-7.8V70.3c0-4.3-2-7.8-5.3-7.8v-1h17.9c14.9,0,30.5,4.2,30.5,24.3
			C368.8,106.3,353.2,109.8,338.4,109.8z M338.4,62.6h-3.3v46.2h3.3c7.6,0,19.4-0.9,19.4-23C357.8,64.1,346.1,62.6,338.4,62.6z"/>
		<linearGradient id="SVGID_2_" gradientUnits="userSpaceOnUse" x1="318.9485" y1="85.6906" x2="774.1151" y2="85.6906">
			<stop  offset="0" style="stop-color:#17FD9A"/>
			<stop  offset="1" style="stop-color:#1CACFF"/>
		</linearGradient>
		<path class="st1" d="M400.4,110.4c-16.4,0-25-10.8-25-24.4c0-13.6,8.6-25.1,25-25.1c16.4,0,25,11.5,25,25.1
			C425.4,99.7,416.8,110.4,400.4,110.4z M400.4,62C391.5,62,386,67.2,386,86c0,18.9,5.5,23.4,14.3,23.4c8.8,0,14.2-4.5,14.2-23.4
			C414.6,67.2,409.2,62,400.4,62z"/>
		<linearGradient id="SVGID_3_" gradientUnits="userSpaceOnUse" x1="318.9485" y1="85.6906" x2="774.1151" y2="85.6906">
			<stop  offset="0" style="stop-color:#17FD9A"/>
			<stop  offset="1" style="stop-color:#1CACFF"/>
		</linearGradient>
		<path class="st2" d="M479.5,109.8h-6.3c-11.5-0.1-9.9-0.1-14.7-15c-2.2-7.1-9.5-7.1-10.5-7.1h-3.5v14.3c0,4.7,2.1,6.7,5.2,6.7v1
			h-19.3v-1c3.2,0,5-1.9,5-7.1V68.3c0-4.3-1.7-5.7-5-5.7v-1h16.4c14.9,0,24.3,1.6,24.3,13.1c0,8.8-5.8,11.8-14.3,12.5
			c4.9-0.1,10.5,1.6,14.2,15.3c1.5,5.2,6.5,6.2,8.4,6.4V109.8z M446.8,62.6h-2.3v24.1h2.3c7.9,0,14,0,14-12.1
			C460.9,62.4,454.4,62.6,446.8,62.6z"/>
		<linearGradient id="SVGID_4_" gradientUnits="userSpaceOnUse" x1="318.9485" y1="85.6906" x2="774.1151" y2="85.6906">
			<stop  offset="0" style="stop-color:#17FD9A"/>
			<stop  offset="1" style="stop-color:#1CACFF"/>
		</linearGradient>
		<path class="st3" d="M522,95.2v14.6h-39.8v-1c3.1,0,4.2-3,4.2-7.7V69.9c0-4.3-0.9-7.3-4.2-7.3v-1H521v12.7h-1.1
			c-1.3-11.6-17.9-11.7-20.9-11.7h-3.4v22.4h3.7c1,0,10.7,0,11.3-7h1.1V93h-1.1C510,86,500.3,86,499.3,86h-3.7v22.8h3.1
			c3.3,0,19.8,0.1,22.2-13.6H522z"/>
		<linearGradient id="SVGID_5_" gradientUnits="userSpaceOnUse" x1="318.9485" y1="85.6906" x2="774.1151" y2="85.6906">
			<stop  offset="0" style="stop-color:#17FD9A"/>
			<stop  offset="1" style="stop-color:#1CACFF"/>
		</linearGradient>
		<path class="st4" d="M573.3,95.5l1,10.7c-5.5,3.4-10.7,4.3-18.7,4.3c-15.8,0-25.9-10.3-25.9-24.8c0-14.5,10.2-24.8,25.9-24.8
			c7.7,0,14,0.7,18.7,4.2l-1,10.7h-1.1c-3.1-10.3-9.3-13.9-16.6-13.9c-8.1,0-14.4,4-14.4,23.7c0,20,6.6,23.7,14.4,23.7
			c7.5,0,15.2-4.9,16.6-13.9H573.3z"/>
		<linearGradient id="SVGID_6_" gradientUnits="userSpaceOnUse" x1="318.9485" y1="85.6906" x2="774.1151" y2="85.6906">
			<stop  offset="0" style="stop-color:#17FD9A"/>
			<stop  offset="1" style="stop-color:#1CACFF"/>
		</linearGradient>
		<path class="st5" d="M605.6,110.4c-16.4,0-25-10.8-25-24.4c0-13.6,8.6-25.1,25-25.1c16.4,0,25,11.5,25,25.1
			C630.6,99.7,622,110.4,605.6,110.4z M605.6,62c-8.9,0-14.3,5.3-14.3,24.1c0,18.9,5.5,23.4,14.3,23.4c8.8,0,14.2-4.5,14.2-23.4
			C619.8,67.2,614.4,62,605.6,62z"/>
		<linearGradient id="SVGID_7_" gradientUnits="userSpaceOnUse" x1="318.9485" y1="85.6906" x2="774.1151" y2="85.6906">
			<stop  offset="0" style="stop-color:#17FD9A"/>
			<stop  offset="1" style="stop-color:#1CACFF"/>
		</linearGradient>
		<path class="st6" d="M654.9,109.8H637v-1c3.2,0,5.3-3.1,5.3-7.8V70.3c0-4.3-2-7.8-5.3-7.8v-1h17.9c14.9,0,30.5,4.2,30.5,24.3
			C685.4,106.3,669.8,109.8,654.9,109.8z M654.9,62.6h-3.3v46.2h3.3c7.6,0,19.4-0.9,19.4-23C674.3,64.1,662.7,62.6,654.9,62.6z"/>
		<linearGradient id="SVGID_8_" gradientUnits="userSpaceOnUse" x1="318.9485" y1="85.6906" x2="774.1151" y2="85.6906">
			<stop  offset="0" style="stop-color:#17FD9A"/>
			<stop  offset="1" style="stop-color:#1CACFF"/>
		</linearGradient>
		<path class="st7" d="M730.8,95.2v14.6H691v-1c3.1,0,4.2-3,4.2-7.7V69.9c0-4.3-0.9-7.3-4.2-7.3v-1h38.8v12.7h-1.1
			c-1.3-11.6-17.9-11.7-20.9-11.7h-3.4v22.4h3.7c1,0,10.7,0,11.3-7h1.1V93h-1.1c-0.6-7.1-10.3-7.1-11.3-7.1h-3.7v22.8h3.1
			c3.3,0,19.8,0.1,22.2-13.6H730.8z"/>
		<linearGradient id="SVGID_9_" gradientUnits="userSpaceOnUse" x1="318.9485" y1="85.6906" x2="774.1151" y2="85.6906">
			<stop  offset="0" style="stop-color:#17FD9A"/>
			<stop  offset="1" style="stop-color:#1CACFF"/>
		</linearGradient>
		<path class="st8" d="M786.3,109.8H780c-11.5-0.1-9.9-0.1-14.7-15c-2.2-7.1-9.5-7.1-10.5-7.1h-3.5v14.3c0,4.7,2.1,6.7,5.2,6.7v1
			h-19.3v-1c3.2,0,5-1.9,5-7.1V68.3c0-4.3-1.7-5.7-5-5.7v-1h16.4c14.9,0,24.3,1.6,24.3,13.1c0,8.8-5.8,11.8-14.3,12.5
			c4.9-0.1,10.5,1.6,14.2,15.3c1.5,5.2,6.5,6.2,8.4,6.4V109.8z M753.6,62.6h-2.3v24.1h2.3c7.9,0,14,0,14-12.1
			C767.7,62.4,761.3,62.6,753.6,62.6z"/>
	</g>
	<g>
		<linearGradient id="SVGID_10_" gradientUnits="userSpaceOnUse" x1="318.9485" y1="153.0401" x2="774.1151" y2="153.0401">
			<stop  offset="0" style="stop-color:#17FD9A"/>
			<stop  offset="1" style="stop-color:#1CACFF"/>
		</linearGradient>
		<path class="st9" d="M321.2,153c0-10.7,8.2-18.6,19.4-18.6c11.1,0,19.3,7.9,19.3,18.6c0,10.7-8.2,18.6-19.3,18.6
			C329.4,171.7,321.2,163.7,321.2,153z M354.7,153c0-8.1-6-14-14.1-14c-8.2,0-14.2,5.9-14.2,14c0,8.1,6,14,14.2,14
			C348.7,167,354.7,161.1,354.7,153z"/>
		<linearGradient id="SVGID_11_" gradientUnits="userSpaceOnUse" x1="318.9485" y1="153.0401" x2="774.1151" y2="153.0401">
			<stop  offset="0" style="stop-color:#17FD9A"/>
			<stop  offset="1" style="stop-color:#1CACFF"/>
		</linearGradient>
		<path class="st10" d="M398.7,134.8v36.4h-4.3l-21.9-27.2v27.2h-5.2v-36.4h4.3l21.9,27.2v-27.2H398.7z"/>
		<linearGradient id="SVGID_12_" gradientUnits="userSpaceOnUse" x1="318.9485" y1="153.0401" x2="774.1151" y2="153.0401">
			<stop  offset="0" style="stop-color:#17FD9A"/>
			<stop  offset="1" style="stop-color:#1CACFF"/>
		</linearGradient>
		<path class="st11" d="M409.2,134.8h5.2v31.9h19.7v4.5h-24.9V134.8z"/>
		<linearGradient id="SVGID_13_" gradientUnits="userSpaceOnUse" x1="318.9485" y1="153.0401" x2="774.1151" y2="153.0401">
			<stop  offset="0" style="stop-color:#17FD9A"/>
			<stop  offset="1" style="stop-color:#1CACFF"/>
		</linearGradient>
		<path class="st12" d="M439.6,134.8h5.2v36.4h-5.2V134.8z"/>
		<linearGradient id="SVGID_14_" gradientUnits="userSpaceOnUse" x1="318.9485" y1="153.0401" x2="774.1151" y2="153.0401">
			<stop  offset="0" style="stop-color:#17FD9A"/>
			<stop  offset="1" style="stop-color:#1CACFF"/>
		</linearGradient>
		<path class="st13" d="M486.5,134.8v36.4h-4.3l-21.9-27.2v27.2h-5.2v-36.4h4.3l21.9,27.2v-27.2H486.5z"/>
		<linearGradient id="SVGID_15_" gradientUnits="userSpaceOnUse" x1="318.9485" y1="153.0401" x2="774.1151" y2="153.0401">
			<stop  offset="0" style="stop-color:#17FD9A"/>
			<stop  offset="1" style="stop-color:#1CACFF"/>
		</linearGradient>
		<path class="st14" d="M523.4,166.7v4.5h-26.4v-36.4h25.7v4.5h-20.5v11.2h18.3v4.4h-18.3v11.8H523.4z"/>
		<linearGradient id="SVGID_16_" gradientUnits="userSpaceOnUse" x1="318.9485" y1="153.0401" x2="774.1151" y2="153.0401">
			<stop  offset="0" style="stop-color:#17FD9A"/>
			<stop  offset="1" style="stop-color:#1CACFF"/>
		</linearGradient>
		<path class="st15" d="M541.4,167.1l1.9-4.1c2.7,2.4,7.3,4.2,12,4.2c6.3,0,9-2.4,9-5.6c0-8.9-22.1-3.3-22.1-16.8
			c0-5.6,4.4-10.4,14-10.4c4.3,0,8.7,1.1,11.7,3.2l-1.7,4.2c-3.2-2-6.8-3-10-3c-6.2,0-8.9,2.6-8.9,5.8c0,8.9,22.1,3.3,22.1,16.7
			c0,5.6-4.5,10.4-14.1,10.4C549.8,171.7,544.4,169.8,541.4,167.1z"/>
		<linearGradient id="SVGID_17_" gradientUnits="userSpaceOnUse" x1="318.9485" y1="153.0401" x2="774.1151" y2="153.0401">
			<stop  offset="0" style="stop-color:#17FD9A"/>
			<stop  offset="1" style="stop-color:#1CACFF"/>
		</linearGradient>
		<path class="st16" d="M607.9,134.8v36.4h-5.2V155h-20.9v16.2h-5.2v-36.4h5.2v15.7h20.9v-15.7H607.9z"/>
		<linearGradient id="SVGID_18_" gradientUnits="userSpaceOnUse" x1="318.9485" y1="153.0401" x2="774.1151" y2="153.0401">
			<stop  offset="0" style="stop-color:#17FD9A"/>
			<stop  offset="1" style="stop-color:#1CACFF"/>
		</linearGradient>
		<path class="st17" d="M615.4,153c0-10.7,8.2-18.6,19.4-18.6c11.1,0,19.3,7.9,19.3,18.6c0,10.7-8.2,18.6-19.3,18.6
			C623.6,171.7,615.4,163.7,615.4,153z M648.9,153c0-8.1-6-14-14.1-14c-8.2,0-14.2,5.9-14.2,14c0,8.1,6,14,14.2,14
			C642.9,167,648.9,161.1,648.9,153z"/>
		<linearGradient id="SVGID_19_" gradientUnits="userSpaceOnUse" x1="318.9485" y1="153.0401" x2="774.1151" y2="153.0401">
			<stop  offset="0" style="stop-color:#17FD9A"/>
			<stop  offset="1" style="stop-color:#1CACFF"/>
		</linearGradient>
		<path class="st18" d="M691,147.5c0,7.9-5.7,12.7-15.2,12.7h-9v11h-5.2v-36.4h14.2C685.2,134.8,691,139.6,691,147.5z M685.8,147.5
			c0-5.2-3.5-8.2-10.2-8.2h-8.9v16.3h8.9C682.3,155.7,685.8,152.7,685.8,147.5z"/>
	</g>
	<g>
		<linearGradient id="SVGID_20_" gradientUnits="userSpaceOnUse" x1="-1.7148" y1="113.068" x2="225.6982" y2="113.068">
			<stop  offset="0" style="stop-color:#17FD9A"/>
			<stop  offset="1" style="stop-color:#1CACFF"/>
		</linearGradient>
		<path class="st19" d="M14.6,132.8h22v23.1h40.5V93.6l-40-43.7c2.6-3.1,5.4-6,8.3-8.8L87,86.5v65h57.3c1.5,2.9,4.6,5,8.2,5
			c5.1,0,9.2-4.1,9.2-9.2c0-5.1-4.1-9.2-9.2-9.2c-3.5,0-6.6,2-8.2,5H95.4V83.2L82.5,69.1l18.8-15.8l9.6,8.5
			c-0.1,0.6-0.2,1.2-0.2,1.8c0,5.1,4.1,9.2,9.2,9.2c5.1,0,9.2-4.1,9.2-9.2c0-5.1-4.1-9.2-9.2-9.2c-1.3,0-2.6,0.3-3.7,0.8l-10.6-9.4
			V13.6c3.2-0.3,6.5-0.5,9.8-0.5c4.2,0,8.3,0.3,12.4,0.8L135,1.7C128.7,0.6,122.2,0,115.5,0C51.8,0,0,51.8,0,115.5
			c0,52.1,34.7,96.3,82.2,110.6l6.4-11.8C50.6,203.9,21.3,172.2,14.6,132.8z M97.2,45.7L76.8,62.8l-25-27.4
			c13-10.3,28.4-17.6,45.4-20.6V45.7z M31.9,56.6l16.5,18.1L33.8,92.3c-0.6-0.1-1.3-0.2-1.9-0.2c-5.1,0-9.2,4.1-9.2,9.2
			c0,5.1,4.1,9.2,9.2,9.2c5.1,0,9.2-4.1,9.2-9.2c0-1.3-0.3-2.5-0.7-3.6L54.1,81l14.4,15.8v50.6H45v-23.1H13.5
			c-0.2-2.9-0.4-5.8-0.4-8.8C13.2,93.6,20.1,73.3,31.9,56.6z"/>
		<linearGradient id="SVGID_21_" gradientUnits="userSpaceOnUse" x1="-1.7148" y1="115.8755" x2="225.6982" y2="115.8755">
			<stop  offset="0" style="stop-color:#17FD9A"/>
			<stop  offset="1" style="stop-color:#1CACFF"/>
		</linearGradient>
		<path class="st20" d="M160.7,9.2c-1.3-4.9-5.7-8.5-11-8.5c-6.3,0-11.4,5.1-11.4,11.4s5.1,11.4,11.4,11.4c2.4,0,4.6-0.7,6.4-2
			c3.4,1.5,6.6,3.1,9.8,4.9v19.5h-27.3v28.5c-2.9,1.5-5,4.6-5,8.2c0,5.1,4.1,9.2,9.2,9.2c5.1,0,9.2-4.1,9.2-9.2c0-3.5-2-6.6-5-8.2
			V54.4h18.8v37.2l-28,23.5h-19.1c-1.5-2.9-4.6-5-8.2-5c-5.1,0-9.2,4.1-9.2,9.2c0,5.1,4.1,9.2,9.2,9.2c3.5,0,6.6-2,8.2-5H141
			l14.8-12.4l14.9,13.1v43.4l18.6,18.6c-12.4,12.9-28.3,22.6-46,27.6l-20.2-24.5H95.6v-19.3h42l9.7,11.6c-0.4,1.1-0.7,2.2-0.7,3.4
			c0,5.1,4.1,9.2,9.2,9.2c5.1,0,9.2-4.1,9.2-9.2s-4.1-9.2-9.2-9.2c-0.7,0-1.4,0.1-2.1,0.2l-12.1-14.5H87.2v13.6H71.8
			c-1.5-2.9-4.6-5-8.2-5c-5.1,0-9.2,4.1-9.2,9.2c0,5.1,4.1,9.2,9.2,9.2c3.5,0,6.6-2,8.2-5h15.4V198h31.9l15,18.2
			c-6,1.1-12.2,1.7-18.6,1.7c-4.8,0-9.5-0.3-14.1-1l-6.7,12.3c6.8,1.2,13.7,1.9,20.8,1.9c63.7,0,115.5-51.8,115.5-115.5
			C231,67.8,202,26.8,160.7,9.2z M179.1,164.2v-17.1h7c1.5,2.9,4.6,5,8.2,5c5.1,0,9.2-4.1,9.2-9.2c0-5.1-4.1-9.2-9.2-9.2
			c-3.5,0-6.6,2-8.2,5h-7v-18.2l-16.8-14.8l12.1-10.1V31.8c12.1,8.6,22.3,19.7,29.8,32.6H190v38.4c-2.9,1.5-5,4.6-5,8.2
			c0,5.1,4.1,9.2,9.2,9.2c5.1,0,9.2-4.1,9.2-9.2c0-3.5-2-6.6-5-8.2v-30h10.1c6,13,9.3,27.4,9.3,42.6c0,24.4-8.6,46.9-23,64.5
			L179.1,164.2z"/>
	</g>
	<rect x="277.9" class="st21" width="7.1" height="231"/>
</g>
</svg>
